<svg id="Group_352" data-name="Group 352" xmlns="http://www.w3.org/2000/svg" viewBox="0 0 96.9 47.132">
  <defs>
    <style>
      .cls-1 {
        fill: #fff;
      }
    </style>
  </defs>
  <path id="Path_514" data-name="Path 514" class="cls-1" d="M78.508,45.549l.633-1.476-1.582-4.007H78.3l1.16,3.163,1.16-3.163h.738l-2.109,5.483Zm-4.639-5.483H74.5v.527a1.43,1.43,0,0,1,1.16-.633,1.3,1.3,0,0,1,1.371,1.476v2.636H76.4V41.542a.861.861,0,0,0-.844-.949,1.27,1.27,0,0,0-1.054.738v2.741h-.633ZM72.076,42.6a.988.988,0,0,0-.949-.527c-.527,0-.949.211-.949.738s.422.738.949.738a.988.988,0,0,0,.949-.527Zm0-1.16c0-.527-.316-.844-.949-.844a2.125,2.125,0,0,0-1.16.316v-.633a2.249,2.249,0,0,1,1.265-.316,1.306,1.306,0,0,1,1.476,1.371v2.741h-.633v-.316c-.105.211-.527.316-1.054.316a1.28,1.28,0,1,1,0-2.531,1.641,1.641,0,0,1,.949.316v-.422Zm-6.01,1.371a1.16,1.16,0,0,0,1.054.633c.738,0,1.16-.633,1.16-1.476s-.422-1.476-1.16-1.476a1.16,1.16,0,0,0-1.054.633Zm0,2.741h-.633V40.066h.633v.422a1.361,1.361,0,0,1,1.16-.527,1.867,1.867,0,0,1,1.792,2.109,1.923,1.923,0,0,1-1.792,2.109,1.361,1.361,0,0,1-1.16-.527ZM63.008,39.96c.844,0,1.265.527,1.265,1.371v2.636h-.633V41.437c0-.527-.211-.949-.738-.949a.9.9,0,0,0-.844.738v2.741h-.633V41.437c0-.527-.211-.949-.738-.949a.9.9,0,0,0-.844.738v2.741h-.633V39.96h.633v.422a1.3,1.3,0,0,1,1.054-.527,1.059,1.059,0,0,1,1.054.633,1.263,1.263,0,0,1,1.054-.527m-6.748.633c-.738,0-1.16.633-1.16,1.476s.422,1.476,1.16,1.476,1.16-.633,1.16-1.476S57,40.593,56.26,40.593m0,3.48a1.872,1.872,0,0,1-1.792-2.109,1.816,1.816,0,1,1,3.585,0,1.765,1.765,0,0,1-1.792,2.109M52.886,39.96a1.781,1.781,0,0,1,1.054.316v.633a1.354,1.354,0,0,0-1.054-.422c-.738,0-1.265.527-1.265,1.476s.527,1.476,1.265,1.476a1.354,1.354,0,0,0,1.054-.422v.738a1.781,1.781,0,0,1-1.054.316,1.947,1.947,0,0,1-1.9-2.109,1.855,1.855,0,0,1,1.9-2m-7.381,1.687h2c0-.633-.316-1.054-.949-1.054-.422,0-.844.316-1.054,1.054m0,.527a1.271,1.271,0,0,0,1.371,1.371,1.757,1.757,0,0,0,1.16-.422v.633a2.125,2.125,0,0,1-1.16.316,1.8,1.8,0,0,1-1.9-2A1.872,1.872,0,0,1,46.77,39.96c1.054,0,1.582.738,1.582,1.9v.211H45.505Zm-4.112.844a1.945,1.945,0,0,0,1.265.527c.422,0,.844-.211.844-.527s-.211-.422-.527-.527l-.527-.316c-.633-.211-1.054-.527-1.054-1.16a1.227,1.227,0,0,1,1.371-1.16,2.125,2.125,0,0,1,1.16.316v.738a1.586,1.586,0,0,0-1.16-.422c-.422,0-.738.211-.738.527s.211.422.633.527l.633.211c.633.211.949.527.949,1.16,0,.738-.633,1.16-1.476,1.16a2,2,0,0,1-1.265-.422v-.633Zm-.949,1.054h-.633V40.066h.633Zm-.316-4.745a.422.422,0,1,1,.422-.422.454.454,0,0,1-.422.422M39.073,40.7a.634.634,0,0,0-.422-.105,1.126,1.126,0,0,0-.949.738v2.636H37.07V39.96H37.7v.633a1.212,1.212,0,0,1,.949-.633c.211,0,.316,0,.422.105Zm-5.8,2.109a1.16,1.16,0,0,0,1.054.633c.738,0,1.16-.633,1.16-1.476s-.422-1.476-1.16-1.476a1.16,1.16,0,0,0-1.054.633Zm0,2.741h-.633V40.066h.633v.422a1.361,1.361,0,0,1,1.16-.527,1.867,1.867,0,0,1,1.792,2.109,1.923,1.923,0,0,1-1.792,2.109,1.36,1.36,0,0,1-1.16-.527ZM31.8,40.7a.634.634,0,0,0-.422-.105,1.126,1.126,0,0,0-.949.738v2.636h-.633V39.96h.633v.633a1.212,1.212,0,0,1,.949-.633c.211,0,.316,0,.422.105Zm-5.588.949h2c0-.633-.316-1.054-.949-1.054-.527,0-.949.316-1.054,1.054m-.105.527a1.271,1.271,0,0,0,1.371,1.371,1.757,1.757,0,0,0,1.16-.422v.633a2.125,2.125,0,0,1-1.16.316,1.8,1.8,0,0,1-1.9-2,1.872,1.872,0,0,1,1.792-2.109c1.054,0,1.582.738,1.582,1.9v.211H26.1Zm-2,1.9h-.633v-3.48h-.844v-.527h.844V39.011H24.1v1.054h.949v.527H24.1Zm-5.377-4.007h.633v.527a1.43,1.43,0,0,1,1.16-.633,1.3,1.3,0,0,1,1.371,1.476v2.636h-.527V41.542a.861.861,0,0,0-.844-.949,1.27,1.27,0,0,0-1.054.738v2.741h-.633V40.066ZM17.88,38.59v.633H15.033v1.687h2.531v.633H15.033v1.9H17.88v.633H14.4V38.59h3.48Zm59.679-6.326a1.16,1.16,0,0,0-1.054-.633c-.738,0-1.16.633-1.16,1.476s.422,1.476,1.16,1.476a1.16,1.16,0,0,0,1.054-.633Zm0,2.32a1.361,1.361,0,0,1-1.16.527A1.867,1.867,0,0,1,74.607,33,1.867,1.867,0,0,1,76.4,30.892a1.361,1.361,0,0,1,1.16.527V29.1H78.3v5.8h-.633v-.316Zm-3.374-2.741a.634.634,0,0,0-.422-.105,1.126,1.126,0,0,0-.949.738V35.11h-.633V31.1h.633v.527A1.212,1.212,0,0,1,73.763,31c.211,0,.316,0,.422.105Zm-3.8,1.9a.988.988,0,0,0-.949-.527c-.527,0-.949.211-.949.738s.422.738.949.738a.988.988,0,0,0,.949-.527Zm0-1.265c0-.527-.316-.844-.949-.844a2.126,2.126,0,0,0-1.16.316v-.633A2.249,2.249,0,0,1,69.545,31a1.306,1.306,0,0,1,1.476,1.371V35.11h-.633v-.316c-.105.211-.527.316-1.054.316a1.28,1.28,0,1,1,0-2.531,1.641,1.641,0,0,1,.949.316v-.422ZM67.648,35.11H66.8l-1.792-2v2h-.633v-5.8h.633v3.48L66.8,31.1h.844l-2,1.792ZM62.376,31a1.781,1.781,0,0,1,1.054.316v.633a1.354,1.354,0,0,0-1.054-.422c-.738,0-1.265.527-1.265,1.476s.527,1.476,1.265,1.476a1.354,1.354,0,0,0,1.054-.422v.633A1.781,1.781,0,0,1,62.376,35a1.947,1.947,0,0,1-1.9-2.109,1.89,1.89,0,0,1,1.9-1.9M59,33.739a.988.988,0,0,0-.949-.527c-.527,0-.949.211-.949.738s.422.738.949.738A.988.988,0,0,0,59,34.161Zm0-1.265c0-.527-.316-.844-.949-.844a2.126,2.126,0,0,0-1.16.316v-.633A2.249,2.249,0,0,1,58.158,31a1.306,1.306,0,0,1,1.476,1.371V35.11H59v-.316c-.105.211-.527.316-1.054.316a1.28,1.28,0,1,1,0-2.531,1.641,1.641,0,0,1,.949.316v-.422Zm-4.85-2.214H52.886v2h1.265a1.028,1.028,0,0,0,1.16-1.054c0-.633-.422-.949-1.16-.949M52.886,32.9V35.11h-.738V29.627h2c1.16,0,1.792.527,1.792,1.687A1.634,1.634,0,0,1,54.151,33H52.886ZM48.352,35.11h-.633V31.736h-.844V31.1h.844V30.049h.633V31.1H49.3v.527h-.949Zm-3.058,0h-.633V31.736h-.844V31.1h.844V30.049h.633V31.1h.949v.527h-.949Zm-4.639-2.425h2c0-.633-.316-1.054-.949-1.054a1.117,1.117,0,0,0-1.054,1.054m0,.527a1.271,1.271,0,0,0,1.371,1.371,1.757,1.757,0,0,0,1.16-.422v.633a2.125,2.125,0,0,1-1.16.316,1.8,1.8,0,0,1-1.9-2A1.872,1.872,0,0,1,41.92,31c1.054,0,1.582.738,1.582,1.9v.316Zm-1.582,1.9H38.44v-5.8h.633Zm-2.847-.949L37.07,31.1H37.7l-1.16,4.007H35.91l-.844-3.058-.844,3.058H33.59L32.43,31.1h.633l.844,3.058L34.75,31.1h.633Zm-6.959-1.476h2c0-.633-.316-1.054-.949-1.054-.422,0-.844.316-1.054,1.054m0,.527a1.271,1.271,0,0,0,1.371,1.371,1.757,1.757,0,0,0,1.16-.422v.633a2.125,2.125,0,0,1-1.16.316,1.8,1.8,0,0,1-1.9-2A1.872,1.872,0,0,1,30.532,31c1.054,0,1.582.738,1.582,1.9v.316Zm-1.582-3.585V35.11h-.738V32.58H23.89V35.11h-.738V29.627h.738v2.32h3.058v-2.32h.738ZM19.25,33.739a.988.988,0,0,0-.949-.527c-.527,0-.949.211-.949.738s.422.738.949.738a.988.988,0,0,0,.949-.527Zm0-1.265c0-.527-.316-.844-.949-.844a2.126,2.126,0,0,0-1.16.316v-.633A2.249,2.249,0,0,1,18.407,31a1.306,1.306,0,0,1,1.476,1.371V35.11H19.25v-.316c-.105.211-.527.316-1.054.316a1.28,1.28,0,1,1,0-2.531,1.641,1.641,0,0,1,.949.316v-.422Z" transform="translate(0.783 1.583)"/>
  <path id="Path_515" data-name="Path 515" class="cls-1" d="M66.639,5.483a9.474,9.474,0,0,0-5.377,1.582V5.588A6.419,6.419,0,0,0,57.043,0h-.105V24.462s2.952-.316,4.007-1.9a9.761,9.761,0,0,0,15.394-7.7,9.544,9.544,0,0,0-9.7-9.384m0,14.656a5.311,5.311,0,0,1-5.377-5.272A5.379,5.379,0,0,1,66.639,9.6a5.273,5.273,0,1,1,0,10.544M87.2,5.483a9.564,9.564,0,0,0-9.7,9.49,9.632,9.632,0,0,0,9.7,9.49,10.366,10.366,0,0,0,5.9-1.9c1.054,1.687,3.8,1.9,3.8,1.9V15.078a9.652,9.652,0,0,0-9.7-9.6m0,14.656a5.311,5.311,0,0,1-5.377-5.272A5.379,5.379,0,0,1,87.2,9.6a5.273,5.273,0,1,1,0,10.544M9.7,5.483A9.564,9.564,0,0,0,0,14.973a9.632,9.632,0,0,0,9.7,9.49,10.366,10.366,0,0,0,5.9-1.9c1.054,1.687,3.8,1.9,3.8,1.9V15.078a9.586,9.586,0,0,0-9.7-9.6m0,14.656a5.311,5.311,0,0,1-5.377-5.272A5.379,5.379,0,0,1,9.7,9.6a5.273,5.273,0,1,1,0,10.544M31,5.483a9.288,9.288,0,0,1,3.48.633v4.956A5.607,5.607,0,0,0,31,9.806a5.2,5.2,0,0,0-5.272,5.167v9.384H21.3V7.275a8.028,8.028,0,0,1,3.058.844A9.687,9.687,0,0,1,31,5.483m23.935,9.49h0a9.281,9.281,0,1,1-18.558,0V6.854a5.948,5.948,0,0,1,4.429,5.8v2.214a4.86,4.86,0,1,0,9.7,0V10.228h0v.105a6.187,6.187,0,0,1,4.323-5.588h.105V14.973Z"/>
</svg>
